<svg width="24" height="24" viewBox="0 0 24 24" fill="none" xmlns="http://www.w3.org/2000/svg">
<path d="M24 12C24 5.37258 18.6274 0 12 0C5.37258 0 0 5.37258 0 12C0 18.6274 5.37258 24 12 24C18.6274 24 24 18.6274 24 12Z" fill="black"/>
<path d="M7.28063 14.3707C7.3783 13.562 7.70996 13.1093 8.33498 12.6451C9.22927 12.0165 10.3464 12.3721 10.3464 12.3721V10.2626C10.6179 10.2557 10.8896 10.2718 11.1582 10.3107V13.0254C11.1582 13.0254 10.0415 12.6698 9.1472 13.2988C8.52252 13.7626 8.19017 14.2157 8.09284 15.0244C8.08979 15.4635 8.1722 16.0375 8.55169 16.5338C8.45786 16.4857 8.36223 16.4309 8.26478 16.3694C7.42883 15.808 7.27656 14.9659 7.28063 14.3707ZM15.7708 6.36217C15.1556 5.68805 14.9229 5.00743 14.8388 4.5293H15.6127C15.6127 4.5293 15.4584 5.78296 16.583 7.01582L16.5986 7.03239C16.2955 6.84174 16.0175 6.61671 15.7708 6.36217ZM19.4988 8.27338V10.9335C19.4988 10.9335 18.5113 10.8948 17.7804 10.7089C16.76 10.4488 16.1041 10.05 16.1041 10.05C16.1041 10.05 15.651 9.76561 15.6144 9.74579V15.2389C15.6144 15.5447 15.5306 16.3086 15.2753 16.9456C14.9419 17.779 14.4275 18.3261 14.3328 18.4379C14.3328 18.4379 13.7071 19.1773 12.6033 19.6753C11.6083 20.1245 10.7347 20.1131 10.4735 20.1245C10.4735 20.1245 8.96339 20.1843 7.6045 19.3012C7.31064 19.1065 7.03635 18.8861 6.78516 18.6427L6.79194 18.6475C8.15117 19.5306 9.66098 19.4708 9.66098 19.4708C9.92245 19.4595 10.7961 19.4708 11.7907 19.0216C12.8936 18.5237 13.5203 17.7842 13.5203 17.7842C13.6139 17.6724 14.1307 17.1254 14.4627 16.2917C14.7174 15.6549 14.8019 14.8908 14.8019 14.5849V9.09246C14.8385 9.11262 15.2912 9.39702 15.2912 9.39702C15.2912 9.39702 15.9474 9.79617 16.9679 10.0559C17.699 10.2418 18.6863 10.2805 18.6863 10.2805V8.19602C19.024 8.27175 19.3119 8.29223 19.4988 8.27338Z" fill="#EE1D52"/>
<path d="M18.6861 8.19602V10.2798C18.6861 10.2798 17.6989 10.2411 16.9677 10.0552C15.9473 9.79519 15.2911 9.39637 15.2911 9.39637C15.2911 9.39637 14.8383 9.11197 14.8017 9.09181V14.5856C14.8017 14.8914 14.7179 15.6556 14.4626 16.2923C14.1292 17.126 13.6147 17.6731 13.5201 17.7849C13.5201 17.7849 12.8941 18.5243 11.7905 19.0223C10.7959 19.4715 9.92228 19.4601 9.66081 19.4715C9.66081 19.4715 8.151 19.5313 6.79177 18.6482L6.78498 18.6433C6.64148 18.5043 6.5064 18.3576 6.3804 18.2039C5.94665 17.675 5.68078 17.0497 5.61397 16.8712V16.8689C5.50646 16.5589 5.2806 15.8142 5.31146 15.0929C5.36606 13.8204 5.81372 13.0394 5.93207 12.8437C6.24553 12.3101 6.65322 11.8327 7.137 11.4327C7.56391 11.0876 8.04779 10.813 8.56881 10.6201C9.13205 10.3937 9.73517 10.2724 10.3459 10.2626V12.3721C10.3459 12.3721 9.22876 12.0178 8.33481 12.6451C7.70979 13.1093 7.37812 13.562 7.28045 14.3707C7.27638 14.9659 7.42865 15.808 8.26393 16.3697C8.36138 16.4314 8.45701 16.4863 8.55084 16.5342C8.69676 16.7238 8.87437 16.8891 9.07649 17.0233C9.89244 17.5398 10.5761 17.5759 11.4504 17.2405C12.0334 17.0162 12.4722 16.5107 12.6757 15.9507C12.8035 15.601 12.8018 15.249 12.8018 14.8849V4.5293H14.8366C14.9207 5.00743 15.1534 5.68805 15.7685 6.36217C16.0153 6.61671 16.2933 6.84174 16.5964 7.03239C16.6859 7.12503 17.1437 7.583 17.7314 7.86416C18.0353 8.00949 18.3556 8.12084 18.6861 8.19602Z" fill="white"/>
<path d="M4.80469 16.2227V16.2244L4.85518 16.3612C4.84938 16.3453 4.83061 16.2969 4.80469 16.2227Z" fill="#69C9D0"/>
<path d="M8.57051 10.6204C8.0495 10.8132 7.56561 11.0878 7.1387 11.433C6.65477 11.8339 6.24718 12.3123 5.93411 12.8469C5.81576 13.0419 5.3681 13.8236 5.3135 15.0961C5.28264 15.8174 5.5085 16.562 5.61601 16.8721V16.8744C5.68383 17.0512 5.94869 17.6766 6.38244 18.207C6.50844 18.3608 6.64352 18.5075 6.78702 18.6465C6.32723 18.3417 5.91716 17.9732 5.57023 17.5531C5.14021 17.0288 4.87501 16.4099 4.80583 16.2273V16.2234V16.2211C4.69798 15.9113 4.47144 15.1663 4.50298 14.4441C4.55758 13.1716 5.00523 12.3905 5.12359 12.1949C5.43657 11.6602 5.84417 11.1818 6.32818 10.781C6.755 10.4357 7.23891 10.1611 7.75999 9.96837C8.08501 9.83912 8.42361 9.74377 8.76992 9.68397C9.29183 9.59665 9.82487 9.58908 10.3492 9.66154V10.2629C9.738 10.2724 9.13427 10.3938 8.57051 10.6204Z" fill="#69C9D0"/>
<path d="M14.8418 4.52897H12.807V14.8849C12.807 15.2489 12.807 15.6 12.6809 15.9507C12.4754 16.5104 12.0382 17.0158 11.4556 17.2401C10.581 17.5768 9.8973 17.5395 9.0817 17.023C8.87923 16.8894 8.70116 16.7246 8.55469 16.5354C9.24957 16.8907 9.87153 16.8845 10.642 16.5881C11.2243 16.3638 11.6621 15.8584 11.867 15.2984C11.9952 14.9486 11.9935 14.5966 11.9935 14.2329V3.875H14.8032C14.8032 3.875 14.7716 4.13243 14.8418 4.52897ZM18.6896 7.6194V8.19569C18.3597 8.12039 18.04 8.00904 17.7366 7.86383C17.1489 7.58267 16.6911 7.1247 16.6016 7.03206C16.7055 7.09744 16.8133 7.15691 16.9244 7.21018C17.639 7.55212 18.3427 7.65418 18.6896 7.6194Z" fill="#69C9D0"/>
</svg>
